<svg width="607" height="454" viewBox="0 0 607 454" fill="none" xmlns="http://www.w3.org/2000/svg">
<g filter="url(#filter0_d_61_1157)">
<path d="M512.727 22.2031L514.64 16.7295L487.357 40.3408L489.246 42.5174L512.727 22.2031Z" fill="#8F9BB3"/>
<path d="M496.788 35.9606L492.864 39.3728L490.954 37.1683L494.878 33.7562L496.788 35.9606Z" fill="#8F9BB3"/>
<path d="M496.319 38.1968C497.336 39.3626 497.599 41.0294 496.808 41.8379L494.637 44.1793L486.438 34.7692L489.065 32.9612C490.023 32.376 491.627 32.8175 492.624 33.9553L493.475 34.9382L495.488 37.2419L496.339 38.2247L496.319 38.1968Z" fill="#C5CEE0"/>
<path d="M496.57 40.7236C496.737 40.9469 496.924 41.1981 497.09 41.4214C497.03 41.5798 496.929 41.7228 496.828 41.8658L494.658 44.2071L486.458 34.7971L489.086 32.9891C489.228 32.9019 489.371 32.8147 489.555 32.7834C489.762 32.9818 489.97 33.1802 490.156 33.391L491.63 35.0901L495.097 39.0649L496.571 40.764L496.57 40.7236Z" fill="#2E3A59"/>
<path d="M448.303 90.1098C454.531 97.2719 455.63 106.429 450.751 110.628L445.567 115.095L409.012 73.1297L414.196 68.6631C419.076 64.4236 428.023 66.7971 434.25 73.9592L448.303 90.0694L448.303 90.1098Z" fill="#EDF1F7"/>
<path d="M301.198 211.732L292.687 201.984C288.93 197.659 280.837 198.541 274.575 203.95L73.123 378.144C66.8613 383.553 64.8501 391.402 68.6282 395.755L77.1183 405.516C80.8756 409.841 88.9686 408.959 95.2304 403.55L296.683 229.356C302.944 223.947 304.956 216.098 301.177 211.745L301.198 211.732Z" fill="#CD7BEE"/>
<path d="M106.757 393.584L95.271 403.525C93.7464 404.862 92.1162 405.899 90.4423 406.678L69.3316 382.45C70.3416 380.94 71.5978 379.441 73.1432 378.132L84.6297 368.191L106.757 393.584Z" fill="#DBDFFD"/>
<path d="M230.203 286.861L211.214 303.294L189.087 277.901L208.075 261.468L230.203 286.861Z" fill="#CD7BEE"/>
<path d="M400.999 68.9603L400.999 68.96C404.3 66.1113 408.941 65.5092 413.727 66.7712C418.509 68.0319 423.473 71.1561 427.537 75.822C427.537 75.822 427.537 75.822 427.537 75.8221L445.269 96.1726L445.289 96.1601L445.596 96.5116C449.661 101.179 452.057 106.511 452.636 111.382C453.214 116.248 451.982 120.71 448.701 123.544C448.701 123.544 448.701 123.544 448.701 123.544L247.229 297.751L247.228 297.751C243.927 300.6 239.287 301.202 234.5 299.94C229.718 298.679 224.755 295.555 220.691 290.889L202.652 270.187C198.587 265.52 196.191 260.188 195.612 255.317C195.034 250.451 196.266 245.989 199.547 243.154C199.547 243.154 199.547 243.154 199.547 243.154L400.999 68.9603Z" fill="white" stroke="#E4E9F2"/>
<path d="M445.173 96.8147C445.858 97.6147 446.502 98.4395 447.085 99.2614L223.534 292.56C222.252 291.596 221.051 290.502 219.931 289.237L204.176 271.161C203.075 269.884 202.159 268.535 201.365 267.151L424.916 73.8528C425.662 74.5751 426.388 75.3098 427.093 76.0972L445.132 96.7993L445.173 96.8147Z" fill="#D7E4FD"/>
<path d="M256.135 289.379L246.865 297.398C242.717 300.987 236.255 300.833 230.048 297.679L197.271 260.067C194.988 253.501 195.743 247.11 199.911 243.508L209.181 235.489L256.135 289.379Z" fill="#DBDFFD"/>
<path d="M243.743 275.138L224.755 291.571L202.627 266.178L221.615 249.745L243.743 275.138Z" fill="#C4CFFD"/>
<path d="M111.368 412.985L69.2091 364.614C63.8328 358.434 55.9569 356.503 51.5653 360.282C47.1738 364.062 47.9951 372.089 53.3923 378.297L95.5512 426.667C100.928 432.847 108.803 434.778 113.195 430.999C117.586 427.219 116.765 419.192 111.368 412.985Z" fill="#EDF1F7"/>
<path d="M495.472 41.6382C497.236 43.6473 497.656 46.5186 496.337 47.9333L483.576 61.6175C482.32 63.116 479.875 62.7007 478.131 60.6792L473.191 55.0053C473.191 55.0053 473.004 54.7541 472.92 54.6424C472.837 54.5308 472.713 54.444 472.609 54.3045L467.669 48.6306C465.905 46.6215 465.921 44.2556 467.509 43.123L482.886 32.4711C484.557 31.4501 487.293 32.2158 489.037 34.1969L490.511 35.896L493.977 39.8709L495.451 41.57L495.472 41.6382Z" fill="#CD7BEE"/>
<path d="M485.19 56.9765C485.647 57.5098 486.042 58.04 486.417 58.6231L483.577 61.6579C482.321 63.1564 479.876 62.7411 478.132 60.7195L473.191 55.0456C473.191 55.0456 473.025 54.8223 472.921 54.6828C472.838 54.5711 472.734 54.4719 472.61 54.3448L467.669 48.6709C465.905 46.6618 465.901 44.2681 467.51 43.1633L470.952 40.7765C471.448 41.2042 471.946 41.7126 472.382 42.218L475.309 45.5883L482.242 53.5379L485.169 56.9082L485.19 56.9765Z" fill="#B363E2"/>
<path d="M483.319 58.5659C486.807 62.5687 487.707 68.3142 485.049 71.1561L459.894 98.2197C457.361 101.189 452.512 100.374 449.024 96.3709L439.164 85.051C438.977 84.7998 438.77 84.6014 438.624 84.3657C438.417 84.1673 438.209 83.9286 438.023 83.7177L428.163 72.3978C424.675 68.3951 424.647 63.6603 427.844 61.423L458.272 40.3991C461.594 38.3292 467.167 39.7983 470.553 43.8633L473.48 47.2336L480.413 55.1832L483.34 58.5535L483.319 58.5659Z" fill="#CD7BEE"/>
<path d="M460.908 97.1129L459.874 98.2322C457.341 101.201 452.491 100.386 449.004 96.3834L439.144 85.0635C438.957 84.8123 438.75 84.6139 438.583 84.3503C438.376 84.1519 438.168 83.9132 437.981 83.7023L428.121 72.3824C424.634 68.3797 424.606 63.6449 427.803 61.4076L429.066 60.5549L460.908 97.1129Z" fill="#B363E2"/>
<path d="M414.729 110.334C416.224 112.061 416.269 114.471 414.826 115.718L351.314 170.639C349.851 171.899 347.488 171.514 345.973 169.8C344.478 168.073 344.433 165.664 345.876 164.416L409.388 109.495C410.852 108.235 413.214 108.62 414.729 110.334ZM344.082 171.442C345.701 173.296 345.993 175.717 344.732 176.812C343.472 177.907 341.107 177.281 339.488 175.427C337.869 173.572 337.577 171.151 338.837 170.056C340.098 168.962 342.463 169.588 344.082 171.442Z" fill="#E9F6FF"/>
<path d="M462.424 102.888L423.524 58.2537C421.739 56.2166 418.782 55.8705 416.891 57.4724C415.001 59.1147 414.929 62.083 416.714 64.12L455.614 108.755C457.399 110.792 460.356 111.138 462.247 109.536C464.138 107.894 464.21 104.925 462.424 102.888Z" fill="#CD7BEE"/>
<path d="M450.534 105.481C450.955 106.524 451.294 107.576 451.551 108.597L449.131 110.684L447.586 112.034L441.751 117.06L440.206 118.41L434.371 123.437L432.826 124.787L426.991 129.813L425.447 131.163L419.327 136.444L417.782 137.794L413.716 141.294L412.171 142.644L406.336 147.67L404.791 149.02L398.956 154.047L397.411 155.396L391.576 160.423L390.031 161.773L384.583 166.482L383.038 167.832L378.321 171.931L376.776 173.281L370.941 178.308L369.396 179.658L363.561 184.684L362.016 186.034L356.181 191.061L354.637 192.411L349.859 196.548L348.314 197.897L342.927 202.569L341.382 203.919L335.547 208.946L334.002 210.296L328.167 215.322L326.622 216.672L320.787 221.699L319.242 223.048L315.135 226.613L313.59 227.963L307.532 233.207L305.987 234.557L300.152 239.584L298.607 240.933L292.772 245.96L291.227 247.31L285.392 252.336L283.847 253.686L280.391 256.651L278.846 258L272.117 263.817L270.572 265.167L264.737 270.193L263.192 271.543L257.357 276.57L255.812 277.92L249.977 282.946L248.432 284.296L232.046 298.489C231.057 298.078 230.047 297.598 229.078 297.053L246.439 282.02L238.385 272.765L239.93 271.416L247.984 280.671L253.819 275.644L245.765 266.389L247.31 265.039L255.364 274.294L261.199 269.268L253.145 260.013L254.69 258.663L262.744 267.918L268.579 262.891L260.525 253.636L262.07 252.286L270.124 261.541L276.853 255.725L259.438 235.739L260.983 234.389L278.398 254.375L281.855 251.411L273.801 242.156L275.346 240.806L283.4 250.061L289.235 245.034L281.181 235.779L282.725 234.429L290.78 243.684L296.615 238.658L288.56 229.403L290.105 228.053L298.16 237.308L303.995 232.281L295.94 223.026L297.485 221.676L305.539 230.931L311.598 225.687L294.182 205.701L295.727 204.351L313.143 224.337L317.249 220.773L309.195 211.518L310.74 210.168L318.794 219.423L324.629 214.396L316.575 205.141L318.12 203.791L326.174 213.046L332.009 208.02L323.955 198.765L325.5 197.415L333.554 206.67L339.389 201.643L331.335 192.388L332.88 191.039L340.934 200.294L346.321 195.622L328.906 175.636L330.451 174.286L347.866 194.272L352.644 190.135L344.59 180.88L346.135 179.53L354.189 188.785L360.024 183.758L351.97 174.503L353.515 173.154L361.569 182.409L367.404 177.382L359.35 168.127L360.895 166.777L368.949 176.032L374.784 171.006L366.73 161.751L368.274 160.401L376.329 169.656L381.045 165.556L363.629 145.57L365.174 144.22L382.59 164.206L388.038 159.497L379.984 150.242L381.529 148.892L389.583 158.147L395.418 153.121L387.364 143.866L388.909 142.516L396.963 151.771L402.798 146.744L394.744 137.489L396.289 136.139L404.343 145.394L410.178 140.368L402.124 131.113L403.669 129.763L411.723 139.018L415.789 135.519L398.374 115.533L399.919 114.183L417.334 134.169L423.454 128.887L415.4 119.632L416.945 118.282L424.999 127.537L430.834 122.511L422.78 113.256L424.325 111.906L432.379 121.161L438.214 116.134L430.16 106.879L431.705 105.529L439.759 114.784L445.594 109.758L437.54 100.503L439.084 99.153L447.139 108.408L450.534 105.481Z" fill="#BFC8FD"/>
<path d="M250.302 282.666L249.895 282.996L248.35 284.346L231.944 298.511C231.346 298.267 230.749 298.022 230.172 297.725C230.151 297.697 230.11 297.682 230.068 297.666L229.3 296.795L246.337 282.042L238.283 272.787L239.828 271.437L247.882 280.692L248.289 280.363L250.281 282.638L250.302 282.666Z" fill="#ADB8EE"/>
<path d="M274.783 323.396L178.031 212.358C172.8 206.374 164.358 205.195 159.092 209.752C153.827 214.309 153.812 222.807 159.043 228.791L255.795 339.829C261.025 345.813 269.468 346.992 274.733 342.435C279.999 337.878 280.014 329.38 274.783 323.396Z" fill="#EED7FA"/>
<path d="M407.08 122.399L405.535 123.749L400.138 117.542L401.683 116.192L407.08 122.399ZM372.315 152.449L370.77 153.799L365.373 147.592L366.918 146.242L372.315 152.449Z" fill="#D7E8FD"/>
</g>
<defs>
<filter id="filter0_d_61_1157" x="29.7412" y="-2.27054" width="505.898" height="456.202" filterUnits="userSpaceOnUse" color-interpolation-filters="sRGB">
<feFlood flood-opacity="0" result="BackgroundImageFix"/>
<feColorMatrix in="SourceAlpha" type="matrix" values="0 0 0 0 0 0 0 0 0 0 0 0 0 0 0 0 0 0 127 0" result="hardAlpha"/>
<feOffset dx="1" dy="1"/>
<feGaussianBlur stdDeviation="10"/>
<feComposite in2="hardAlpha" operator="out"/>
<feColorMatrix type="matrix" values="0 0 0 0 0 0 0 0 0 0 0 0 0 0 0 0 0 0 0.25 0"/>
<feBlend mode="normal" in2="BackgroundImageFix" result="effect1_dropShadow_61_1157"/>
<feBlend mode="normal" in="SourceGraphic" in2="effect1_dropShadow_61_1157" result="shape"/>
</filter>
</defs>
</svg>
